<svg xmlns="http://www.w3.org/2000/svg" viewBox="0 0 1110 1247">
  <path d="M551.241 0H398.287c-23.276 187.867-99.753 312.558-201.168 463.849C113.992 588.54 19.227 729.856 2.602 882.81c-23.276 209.48 111.39 364.097 330.846 364.097 270.994 0 418.961-224.443 418.961-457.199l206.155 457.199h151.291L551.241.001ZM714.17 704.918c71.489 157.941-103.078 394.022-267.669 422.286-192.855 34.913-322.533-81.465-339.159-246.056-16.625-157.941 83.127-322.533 157.941-455.536C335.11 302.584 393.299 182.881 418.237 44.89l295.932 660.029Z" fill="#f6f4f0"/>
</svg>
